<?xml version="1.0" encoding="UTF-8" standalone="no"?>
<!DOCTYPE svg PUBLIC "-//W3C//DTD SVG 1.1//EN"
 "http://www.w3.org/Graphics/SVG/1.1/DTD/svg11.dtd">
<!-- Generated by graphviz version 8.1.0 (20230707.0739)
 -->
<!-- Title: Changeme Pages: 1 -->
<svg width="658pt" height="602pt"
 viewBox="0.00 0.00 658.00 602.00" xmlns="http://www.w3.org/2000/svg" xmlns:xlink="http://www.w3.org/1999/xlink">
<g id="graph0" class="graph" transform="scale(1 1) rotate(0) translate(4 598)">
<title>Changeme</title>
<style>@font-face{font-family:"Lato";font-style:normal;font-weight:400;src:local("Lato Regular"),local("Lato-Regular"),url(../_static/fonts/Lato-Regular.ttf) format("truetype")}</style><polygon fill="white" stroke="none" points="-4,4 -4,-598 654,-598 654,4 -4,4"/>
<!-- organization -->
<g id="organization" class="node">
<title>organization</title>
<style>@font-face{font-family:"Lato";font-style:normal;font-weight:400;src:local("Lato Regular"),local("Lato-Regular"),url(../_static/fonts/Lato-Regular.ttf) format("truetype")}</style><polygon fill="white" stroke="none" points="300,-198 0,-198 0,0 300,0 300,-198"/>
<polygon fill="black" stroke="none" points="8,-4 8,-194 292,-194 292,-4 8,-4"/>
<polygon fill="#77dd77" stroke="none" points="8,-156 8,-194 292,-194 292,-156 8,-156"/>
<text text-anchor="start" x="118.13" y="-183.5" font-family="Lato" font-weight="bold" font-size="10.00">organization</text>
<text text-anchor="start" x="20.25" y="-175.4" font-family="Lato" font-size="8.00">The details about each organization delivering services. Each service</text>
<text text-anchor="start" x="19.13" y="-167.4" font-family="Lato" font-size="8.00">should be linked to the organization responsible for its delivery. One</text>
<text text-anchor="start" x="74.63" y="-159.4" font-family="Lato" font-size="8.00">organization may deliver many services.</text>
<polygon fill="#dddddd" stroke="none" points="8,-128 8,-156 57,-156 57,-128 8,-128"/>
<text text-anchor="start" x="10" y="-141.4" font-family="Lato" font-weight="bold" font-size="8.00">id</text>
<polygon fill="#dddddd" stroke="none" points="57,-128 57,-156 91,-156 91,-128 57,-128"/>
<text text-anchor="start" x="59" y="-140.4" font-family="Lato" font-size="8.00">number</text>
<polygon fill="#dddddd" stroke="none" points="91,-128 91,-156 292,-156 292,-128 91,-128"/>
<text text-anchor="start" x="93" y="-146.4" font-family="Lato" font-size="8.00">UNIQ; The identifier for the organization. Each</text>
<text text-anchor="start" x="93" y="-134.4" font-family="Lato" font-size="8.00">organization must have a unique identifier.</text>
<polygon fill="#dddddd" stroke="none" points="8,-112 8,-128 57,-128 57,-112 8,-112"/>
<text text-anchor="start" x="10" y="-119.4" font-family="Lato" font-weight="bold" font-size="8.00">name</text>
<polygon fill="#dddddd" stroke="none" points="57,-112 57,-128 91,-128 91,-112 57,-112"/>
<text text-anchor="start" x="59" y="-118.4" font-family="Lato" font-size="8.00">string</text>
<polygon fill="#dddddd" stroke="none" points="91,-112 91,-128 292,-128 292,-112 91,-112"/>
<text text-anchor="start" x="93" y="-118.4" font-family="Lato" font-size="8.00">The official or public name of the organization.</text>
<polygon fill="#dddddd" stroke="none" points="8,-72 8,-112 57,-112 57,-72 8,-72"/>
<text text-anchor="start" x="10" y="-91.4" font-family="Lato" font-weight="bold" font-size="8.00">description</text>
<polygon fill="#dddddd" stroke="none" points="57,-72 57,-112 91,-112 91,-72 57,-72"/>
<text text-anchor="start" x="59" y="-90.4" font-family="Lato" font-size="8.00">string</text>
<polygon fill="#dddddd" stroke="none" points="91,-72 91,-112 292,-112 292,-72 91,-72"/>
<text text-anchor="start" x="93" y="-102.4" font-family="Lato" font-size="8.00">A free text description containing a brief summary</text>
<text text-anchor="start" x="93" y="-90.4" font-family="Lato" font-size="8.00">about the organization. It can contain markup such</text>
<text text-anchor="start" x="93" y="-78.4" font-family="Lato" font-size="8.00">as HTML or Markdown.</text>
<polygon fill="#dddddd" stroke="none" points="8,-52 8,-72 57,-72 57,-52 8,-52"/>
<text text-anchor="start" x="10" y="-61.4" font-family="Lato" font-weight="bold" font-size="8.00">email</text>
<polygon fill="#dddddd" stroke="none" points="57,-52 57,-72 91,-72 91,-52 57,-52"/>
<text text-anchor="start" x="59" y="-60.4" font-family="Lato" font-size="8.00">string</text>
<polygon fill="#dddddd" stroke="none" points="91,-52 91,-72 292,-72 292,-52 91,-52"/>
<text text-anchor="start" x="93" y="-63.4" font-family="Lato" text-decoration="line-through" font-size="8.00">NULL</text>
<text text-anchor="start" x="114" y="-63.4" font-family="Lato" font-size="8.00">; The contact e&#45;mail address for the</text>
<text text-anchor="start" x="93" y="-55.4" font-family="Lato" font-size="8.00">organization.</text>
<polygon fill="#dddddd" stroke="none" points="8,-32 8,-52 57,-52 57,-32 8,-32"/>
<text text-anchor="start" x="10" y="-41.4" font-family="Lato" font-weight="bold" font-size="8.00">website</text>
<polygon fill="#dddddd" stroke="none" points="57,-32 57,-52 91,-52 91,-32 57,-32"/>
<text text-anchor="start" x="59" y="-40.4" font-family="Lato" font-size="8.00">string</text>
<polygon fill="#dddddd" stroke="none" points="91,-32 91,-52 292,-52 292,-32 91,-32"/>
<text text-anchor="start" x="93" y="-43.4" font-family="Lato" text-decoration="line-through" font-size="8.00">NULL</text>
<text text-anchor="start" x="114" y="-43.4" font-family="Lato" font-size="8.00">; The URL (website address) of the</text>
<text text-anchor="start" x="93" y="-35.4" font-family="Lato" font-size="8.00">organization.</text>
<polygon fill="#dddddd" stroke="none" points="8,-4 8,-32 57,-32 57,-4 8,-4"/>
<text text-anchor="start" x="10" y="-17.4" font-family="Lato" font-weight="bold" font-size="8.00">logo</text>
<polygon fill="#dddddd" stroke="none" points="57,-4 57,-32 91,-32 91,-4 57,-4"/>
<text text-anchor="start" x="59" y="-16.4" font-family="Lato" font-size="8.00">string</text>
<polygon fill="#dddddd" stroke="none" points="91,-4 91,-32 292,-32 292,-4 91,-4"/>
<text text-anchor="start" x="93" y="-23.4" font-family="Lato" text-decoration="line-through" font-size="8.00">NULL</text>
<text text-anchor="start" x="114" y="-23.4" font-family="Lato" font-size="8.00">; A URL to an image associated with the</text>
<text text-anchor="start" x="93" y="-15.4" font-family="Lato" font-size="8.00">organization which can be presented alongside its</text>
<text text-anchor="start" x="93" y="-7.4" font-family="Lato" font-size="8.00">name.</text>
</g>
<!-- service -->
<g id="service" class="node">
<title>service</title>
<style>@font-face{font-family:"Lato";font-style:normal;font-weight:400;src:local("Lato Regular"),local("Lato-Regular"),url(../_static/fonts/Lato-Regular.ttf) format("truetype")}</style><polygon fill="white" stroke="none" points="646.5,-594 339.5,-594 339.5,-308 646.5,-308 646.5,-594"/>
<polygon fill="black" stroke="none" points="347.5,-312 347.5,-590 638.5,-590 638.5,-312 347.5,-312"/>
<polygon fill="#77dd77" stroke="none" points="347.5,-560 347.5,-590 638.5,-590 638.5,-560 347.5,-560"/>
<text text-anchor="start" x="475" y="-579.5" font-family="Lato" font-weight="bold" font-size="10.00">service</text>
<text text-anchor="start" x="368.13" y="-571.4" font-family="Lato" font-size="8.00">The details of the services provided by organizations to a range of</text>
<text text-anchor="start" x="460.75" y="-563.4" font-family="Lato" font-size="8.00">different groups.</text>
<polygon fill="#dddddd" stroke="none" points="347.5,-532 347.5,-560 414.5,-560 414.5,-532 347.5,-532"/>
<text text-anchor="start" x="349.5" y="-545.4" font-family="Lato" font-weight="bold" font-size="8.00">id</text>
<polygon fill="#dddddd" stroke="none" points="414.5,-532 414.5,-560 452.5,-560 452.5,-532 414.5,-532"/>
<text text-anchor="start" x="416.5" y="-544.4" font-family="Lato" font-size="8.00">string</text>
<polygon fill="#dddddd" stroke="none" points="452.5,-532 452.5,-560 638.5,-560 638.5,-532 452.5,-532"/>
<text text-anchor="start" x="454.5" y="-550.4" font-family="Lato" font-size="8.00">UNIQ; The identifier for the service. Each service</text>
<text text-anchor="start" x="454.5" y="-538.4" font-family="Lato" font-size="8.00">must have a unique identifier.</text>
<polygon fill="#dddddd" stroke="none" points="347.5,-516 347.5,-532 414.5,-532 414.5,-516 347.5,-516"/>
<text text-anchor="start" x="349.5" y="-523.4" font-family="Lato" font-weight="bold" font-size="8.00">name</text>
<polygon fill="#dddddd" stroke="none" points="414.5,-516 414.5,-532 452.5,-532 452.5,-516 414.5,-516"/>
<text text-anchor="start" x="416.5" y="-522.4" font-family="Lato" font-size="8.00">string</text>
<polygon fill="#dddddd" stroke="none" points="452.5,-516 452.5,-532 638.5,-532 638.5,-516 452.5,-516"/>
<text text-anchor="start" x="454.5" y="-522.4" font-family="Lato" font-size="8.00">The official or public name of the service.</text>
<polygon fill="#dddddd" stroke="none" points="347.5,-496 347.5,-516 414.5,-516 414.5,-496 347.5,-496"/>
<text text-anchor="start" x="349.5" y="-505.4" font-family="Lato" font-weight="bold" font-size="8.00">description</text>
<polygon fill="#dddddd" stroke="none" points="414.5,-496 414.5,-516 452.5,-516 452.5,-496 414.5,-496"/>
<text text-anchor="start" x="416.5" y="-504.4" font-family="Lato" font-size="8.00">string</text>
<polygon fill="#dddddd" stroke="none" points="452.5,-496 452.5,-516 638.5,-516 638.5,-496 452.5,-496"/>
<text text-anchor="start" x="454.5" y="-507.4" font-family="Lato" text-decoration="line-through" font-size="8.00">NULL</text>
<text text-anchor="start" x="475.5" y="-507.4" font-family="Lato" font-size="8.00">; A free text description of the</text>
<text text-anchor="start" x="454.5" y="-499.4" font-family="Lato" font-size="8.00">service.</text>
<polygon fill="#dddddd" stroke="none" points="347.5,-468 347.5,-496 414.5,-496 414.5,-468 347.5,-468"/>
<text text-anchor="start" x="349.5" y="-481.4" font-family="Lato" font-weight="bold" font-size="8.00">status</text>
<polygon fill="#dddddd" stroke="none" points="414.5,-468 414.5,-496 452.5,-496 452.5,-468 414.5,-468"/>
<text text-anchor="start" x="416.5" y="-480.4" font-family="Lato" font-size="8.00">string</text>
<polygon fill="#dddddd" stroke="none" points="452.5,-468 452.5,-496 638.5,-496 638.5,-468 452.5,-468"/>
<text text-anchor="start" x="454.5" y="-486.4" font-family="Lato" font-size="8.00">The current status of the service which can be</text>
<text text-anchor="start" x="454.5" y="-474.4" font-family="Lato" font-size="8.00">active, inactive, defunct, or temporarily closed.</text>
<polygon fill="#dddddd" stroke="none" points="347.5,-448 347.5,-468 414.5,-468 414.5,-448 347.5,-448"/>
<text text-anchor="start" x="349.5" y="-457.4" font-family="Lato" font-weight="bold" font-size="8.00">fees_description</text>
<polygon fill="#dddddd" stroke="none" points="414.5,-448 414.5,-468 452.5,-468 452.5,-448 414.5,-448"/>
<text text-anchor="start" x="416.5" y="-456.4" font-family="Lato" font-size="8.00">string</text>
<polygon fill="#dddddd" stroke="none" points="452.5,-448 452.5,-468 638.5,-468 638.5,-448 452.5,-448"/>
<text text-anchor="start" x="454.5" y="-459.4" font-family="Lato" text-decoration="line-through" font-size="8.00">NULL</text>
<text text-anchor="start" x="475.5" y="-459.4" font-family="Lato" font-size="8.00">; A free text description of any</text>
<text text-anchor="start" x="454.5" y="-451.4" font-family="Lato" font-size="8.00">charges for service users to access this service.</text>
<polygon fill="#dddddd" stroke="none" points="347.5,-428 347.5,-448 414.5,-448 414.5,-428 347.5,-428"/>
<text text-anchor="start" x="349.5" y="-437.4" font-family="Lato" font-weight="bold" font-size="8.00">fees</text>
<polygon fill="#dddddd" stroke="none" points="414.5,-428 414.5,-448 452.5,-448 452.5,-428 414.5,-428"/>
<text text-anchor="start" x="416.5" y="-436.4" font-family="Lato" font-size="8.00">string</text>
<polygon fill="#dddddd" stroke="none" points="452.5,-428 452.5,-448 638.5,-448 638.5,-428 452.5,-428"/>
<text text-anchor="start" x="454.5" y="-439.4" font-family="Lato" text-decoration="line-through" font-size="8.00">NULL</text>
<text text-anchor="start" x="475.5" y="-439.4" font-family="Lato" font-size="8.00">; DEPRECATED: Details of any charges</text>
<text text-anchor="start" x="454.5" y="-431.4" font-family="Lato" font-size="8.00">for service users to access this service.</text>
<polygon fill="#dddddd" stroke="none" points="347.5,-408 347.5,-428 414.5,-428 414.5,-408 347.5,-408"/>
<text text-anchor="start" x="349.5" y="-417.4" font-family="Lato" font-weight="bold" font-size="8.00">minimum_age</text>
<polygon fill="#dddddd" stroke="none" points="414.5,-408 414.5,-428 452.5,-428 452.5,-408 414.5,-408"/>
<text text-anchor="start" x="416.5" y="-416.4" font-family="Lato" font-size="8.00">number</text>
<polygon fill="#dddddd" stroke="none" points="452.5,-408 452.5,-428 638.5,-428 638.5,-408 452.5,-408"/>
<text text-anchor="start" x="454.5" y="-419.4" font-family="Lato" text-decoration="line-through" font-size="8.00">NULL</text>
<text text-anchor="start" x="475.5" y="-419.4" font-family="Lato" font-size="8.00">; The minimum age of a person required</text>
<text text-anchor="start" x="454.5" y="-411.4" font-family="Lato" font-size="8.00">to meet this eligibility requirement.</text>
<polygon fill="#dddddd" stroke="none" points="347.5,-388 347.5,-408 414.5,-408 414.5,-388 347.5,-388"/>
<text text-anchor="start" x="349.5" y="-397.4" font-family="Lato" font-weight="bold" font-size="8.00">maximum_age</text>
<polygon fill="#dddddd" stroke="none" points="414.5,-388 414.5,-408 452.5,-408 452.5,-388 414.5,-388"/>
<text text-anchor="start" x="416.5" y="-396.4" font-family="Lato" font-size="8.00">number</text>
<polygon fill="#dddddd" stroke="none" points="452.5,-388 452.5,-408 638.5,-408 638.5,-388 452.5,-388"/>
<text text-anchor="start" x="454.5" y="-399.4" font-family="Lato" text-decoration="line-through" font-size="8.00">NULL</text>
<text text-anchor="start" x="475.5" y="-399.4" font-family="Lato" font-size="8.00">; The maximum age of a person required</text>
<text text-anchor="start" x="454.5" y="-391.4" font-family="Lato" font-size="8.00">to meet this eligibility requirement.</text>
<polygon fill="#dddddd" stroke="none" points="347.5,-368 347.5,-388 414.5,-388 414.5,-368 347.5,-368"/>
<text text-anchor="start" x="349.5" y="-377.4" font-family="Lato" font-weight="bold" font-size="8.00">assured_date</text>
<polygon fill="#dddddd" stroke="none" points="414.5,-368 414.5,-388 452.5,-388 452.5,-368 414.5,-368"/>
<text text-anchor="start" x="416.5" y="-376.4" font-family="Lato" font-size="8.00">date</text>
<polygon fill="#dddddd" stroke="none" points="452.5,-368 452.5,-388 638.5,-388 638.5,-368 452.5,-368"/>
<text text-anchor="start" x="454.5" y="-379.4" font-family="Lato" text-decoration="line-through" font-size="8.00">NULL</text>
<text text-anchor="start" x="475.5" y="-379.4" font-family="Lato" font-size="8.00">; The date that the information about</text>
<text text-anchor="start" x="454.5" y="-371.4" font-family="Lato" font-size="8.00">the service was last checked.</text>
<polygon fill="#dddddd" stroke="none" points="347.5,-340 347.5,-368 414.5,-368 414.5,-340 347.5,-340"/>
<text text-anchor="start" x="349.5" y="-353.4" font-family="Lato" font-weight="bold" font-size="8.00">assurer_email</text>
<polygon fill="#dddddd" stroke="none" points="414.5,-340 414.5,-368 452.5,-368 452.5,-340 414.5,-340"/>
<text text-anchor="start" x="416.5" y="-352.4" font-family="Lato" font-size="8.00">string</text>
<polygon fill="#dddddd" stroke="none" points="452.5,-340 452.5,-368 638.5,-368 638.5,-340 452.5,-340"/>
<text text-anchor="start" x="454.5" y="-359.4" font-family="Lato" text-decoration="line-through" font-size="8.00">NULL</text>
<text text-anchor="start" x="475.5" y="-359.4" font-family="Lato" font-size="8.00">; The contact e&#45;mail address for the</text>
<text text-anchor="start" x="454.5" y="-351.4" font-family="Lato" font-size="8.00">person or organization which last assured the</text>
<text text-anchor="start" x="454.5" y="-343.4" font-family="Lato" font-size="8.00">service.</text>
<polygon fill="#dddddd" stroke="none" points="347.5,-312 347.5,-340 414.5,-340 414.5,-312 347.5,-312"/>
<text text-anchor="start" x="349.5" y="-325.4" font-family="Lato" font-weight="bold" font-size="8.00">last_modified</text>
<polygon fill="#dddddd" stroke="none" points="414.5,-312 414.5,-340 452.5,-340 452.5,-312 414.5,-312"/>
<text text-anchor="start" x="416.5" y="-324.4" font-family="Lato" font-size="8.00">datetime</text>
<polygon fill="#dddddd" stroke="none" points="452.5,-312 452.5,-340 638.5,-340 638.5,-312 452.5,-312"/>
<text text-anchor="start" x="454.5" y="-331.4" font-family="Lato" text-decoration="line-through" font-size="8.00">NULL</text>
<text text-anchor="start" x="475.5" y="-331.4" font-family="Lato" font-size="8.00">; The datetime when the service, or any</text>
<text text-anchor="start" x="454.5" y="-323.4" font-family="Lato" font-size="8.00">related information about the service, has</text>
<text text-anchor="start" x="454.5" y="-315.4" font-family="Lato" font-size="8.00">changed. Should have millisecond accuracy.</text>
</g>
<!-- location -->
<g id="location" class="node">
<title>location</title>
<style>@font-face{font-family:"Lato";font-style:normal;font-weight:400;src:local("Lato Regular"),local("Lato-Regular"),url(../_static/fonts/Lato-Regular.ttf) format("truetype")}</style><polygon fill="white" stroke="none" points="650,-290 336,-290 336,-32 650,-32 650,-290"/>
<polygon fill="black" stroke="none" points="344,-36 344,-286 642,-286 642,-36 344,-36"/>
<polygon fill="#77dd77" stroke="none" points="344,-256 344,-286 642,-286 642,-256 344,-256"/>
<text text-anchor="start" x="472.75" y="-275.5" font-family="Lato" font-weight="bold" font-size="10.00">location</text>
<text text-anchor="start" x="362.88" y="-267.4" font-family="Lato" font-size="8.00">The locations where organizations operate. Locations may be virtual,</text>
<text text-anchor="start" x="402.25" y="-259.4" font-family="Lato" font-size="8.00">and one organization may have many locations.</text>
<polygon fill="#dddddd" stroke="none" points="344,-228 344,-256 409,-256 409,-228 344,-228"/>
<text text-anchor="start" x="346" y="-241.4" font-family="Lato" font-weight="bold" font-size="8.00">id</text>
<polygon fill="#dddddd" stroke="none" points="409,-228 409,-256 443,-256 443,-228 409,-228"/>
<text text-anchor="start" x="411" y="-240.4" font-family="Lato" font-size="8.00">number</text>
<polygon fill="#dddddd" stroke="none" points="443,-228 443,-256 642,-256 642,-228 443,-228"/>
<text text-anchor="start" x="445" y="-246.4" font-family="Lato" font-size="8.00">UNIQ; The identifier of the location. Each</text>
<text text-anchor="start" x="445" y="-234.4" font-family="Lato" font-size="8.00">location must have a unique identifier.</text>
<polygon fill="#dddddd" stroke="none" points="344,-200 344,-228 409,-228 409,-200 344,-200"/>
<text text-anchor="start" x="346" y="-213.4" font-family="Lato" font-weight="bold" font-size="8.00">location_type</text>
<polygon fill="#dddddd" stroke="none" points="409,-200 409,-228 443,-228 443,-200 409,-200"/>
<text text-anchor="start" x="411" y="-212.4" font-family="Lato" font-size="8.00">string</text>
<polygon fill="#dddddd" stroke="none" points="443,-200 443,-228 642,-228 642,-200 443,-200"/>
<text text-anchor="start" x="445" y="-218.4" font-family="Lato" font-size="8.00">The type of location, which can only be postal for</text>
<text text-anchor="start" x="445" y="-206.4" font-family="Lato" font-size="8.00">now.</text>
<polygon fill="#dddddd" stroke="none" points="344,-172 344,-200 409,-200 409,-172 344,-172"/>
<text text-anchor="start" x="346" y="-185.4" font-family="Lato" font-weight="bold" font-size="8.00">url</text>
<polygon fill="#dddddd" stroke="none" points="409,-172 409,-200 443,-200 443,-172 409,-172"/>
<text text-anchor="start" x="411" y="-184.4" font-family="Lato" font-size="8.00">string</text>
<polygon fill="#dddddd" stroke="none" points="443,-172 443,-200 642,-200 642,-172 443,-172"/>
<text text-anchor="start" x="445" y="-191.4" font-family="Lato" text-decoration="line-through" font-size="8.00">NULL</text>
<text text-anchor="start" x="466" y="-191.4" font-family="Lato" font-size="8.00">; If location_type is virtual, then</text>
<text text-anchor="start" x="445" y="-183.4" font-family="Lato" font-size="8.00">this field represents the URL of a virtual</text>
<text text-anchor="start" x="445" y="-175.4" font-family="Lato" font-size="8.00">location.</text>
<polygon fill="#dddddd" stroke="none" points="344,-112 344,-172 409,-172 409,-112 344,-112"/>
<text text-anchor="start" x="346" y="-141.4" font-family="Lato" font-weight="bold" font-size="8.00">organization_id</text>
<polygon fill="#dddddd" stroke="none" points="409,-112 409,-172 443,-172 443,-112 409,-112"/>
<text text-anchor="start" x="411" y="-140.4" font-family="Lato" font-size="8.00">number</text>
<polygon fill="#dddddd" stroke="none" points="443,-112 443,-172 642,-172 642,-112 443,-112"/>
<text text-anchor="start" x="445" y="-163.4" font-family="Lato" text-decoration="line-through" font-size="8.00">NULL</text>
<text text-anchor="start" x="466" y="-163.4" font-family="Lato" font-size="8.00">; The organization identifier for a</text>
<text text-anchor="start" x="445" y="-155.4" font-family="Lato" font-size="8.00">location. This is the organization that is</text>
<text text-anchor="start" x="445" y="-147.4" font-family="Lato" font-size="8.00">responsible for maintaining information about this</text>
<text text-anchor="start" x="445" y="-139.4" font-family="Lato" font-size="8.00">location. The identifier of the organization</text>
<text text-anchor="start" x="445" y="-131.4" font-family="Lato" font-size="8.00">should be given here. Details of the services the</text>
<text text-anchor="start" x="445" y="-123.4" font-family="Lato" font-size="8.00">organization delivers at this location should be</text>
<text text-anchor="start" x="445" y="-115.4" font-family="Lato" font-size="8.00">provided in the services_at_location table.</text>
<polygon fill="#dddddd" stroke="none" points="344,-96 344,-112 409,-112 409,-96 344,-96"/>
<text text-anchor="start" x="346" y="-103.4" font-family="Lato" font-weight="bold" font-size="8.00">name</text>
<polygon fill="#dddddd" stroke="none" points="409,-96 409,-112 443,-112 443,-96 409,-96"/>
<text text-anchor="start" x="411" y="-102.4" font-family="Lato" font-size="8.00">string</text>
<polygon fill="#dddddd" stroke="none" points="443,-96 443,-112 642,-112 642,-96 443,-96"/>
<text text-anchor="start" x="445" y="-102.4" font-family="Lato" font-size="8.00">The name of the location.</text>
<polygon fill="#dddddd" stroke="none" points="344,-76 344,-96 409,-96 409,-76 344,-76"/>
<text text-anchor="start" x="346" y="-85.4" font-family="Lato" font-weight="bold" font-size="8.00">description</text>
<polygon fill="#dddddd" stroke="none" points="409,-76 409,-96 443,-96 443,-76 409,-76"/>
<text text-anchor="start" x="411" y="-84.4" font-family="Lato" font-size="8.00">string</text>
<polygon fill="#dddddd" stroke="none" points="443,-76 443,-96 642,-96 642,-76 443,-76"/>
<text text-anchor="start" x="445" y="-87.4" font-family="Lato" text-decoration="line-through" font-size="8.00">NULL</text>
<text text-anchor="start" x="466" y="-87.4" font-family="Lato" font-size="8.00">; A free text description of the</text>
<text text-anchor="start" x="445" y="-79.4" font-family="Lato" font-size="8.00">location.</text>
<polygon fill="#dddddd" stroke="none" points="344,-56 344,-76 409,-76 409,-56 344,-56"/>
<text text-anchor="start" x="346" y="-65.4" font-family="Lato" font-weight="bold" font-size="8.00">latitude</text>
<polygon fill="#dddddd" stroke="none" points="409,-56 409,-76 443,-76 443,-56 409,-56"/>
<text text-anchor="start" x="411" y="-64.4" font-family="Lato" font-size="8.00">number</text>
<polygon fill="#dddddd" stroke="none" points="443,-56 443,-76 642,-76 642,-56 443,-56"/>
<text text-anchor="start" x="445" y="-67.4" font-family="Lato" text-decoration="line-through" font-size="8.00">NULL</text>
<text text-anchor="start" x="466" y="-67.4" font-family="Lato" font-size="8.00">; The latitude of the location</text>
<text text-anchor="start" x="445" y="-59.4" font-family="Lato" font-size="8.00">expressed in decimal degrees in WGS84 datum.</text>
<polygon fill="#dddddd" stroke="none" points="344,-36 344,-56 409,-56 409,-36 344,-36"/>
<text text-anchor="start" x="346" y="-45.4" font-family="Lato" font-weight="bold" font-size="8.00">longitude</text>
<polygon fill="#dddddd" stroke="none" points="409,-36 409,-56 443,-56 443,-36 409,-36"/>
<text text-anchor="start" x="411" y="-44.4" font-family="Lato" font-size="8.00">number</text>
<polygon fill="#dddddd" stroke="none" points="443,-36 443,-56 642,-56 642,-36 443,-36"/>
<text text-anchor="start" x="445" y="-47.4" font-family="Lato" text-decoration="line-through" font-size="8.00">NULL</text>
<text text-anchor="start" x="466" y="-47.4" font-family="Lato" font-size="8.00">; The longitude of the location</text>
<text text-anchor="start" x="445" y="-39.4" font-family="Lato" font-size="8.00">expressed in decimal degrees in WGS84 datum.</text>
</g>
<!-- location&#45;&gt;organization -->
<g id="edge1" class="edge">
<title>location:i4&#45;&gt;organization:f1</title>
<style>@font-face{font-family:"Lato";font-style:normal;font-weight:400;src:local("Lato Regular"),local("Lato-Regular"),url(../_static/fonts/Lato-Regular.ttf) format("truetype")}</style><path fill="none" stroke="black" d="M343,-142C320.78,-142 315.22,-142 293,-142"/>
</g>
</g>
</svg>

